# File exported by Houdini 18.5.408 (www.sidefx.com)
# 35 points
# 144 vertices
# 48 primitives
# Bounds: [-0.5, -0.5, -0.5] to [0.5, 0, 0.5]
g 
v 0.5 0 0.5
v -0.5 -4.37113883e-08 0.5
v -0.433012635 -0.250000089 0.5
v -0.249999955 -0.433012724 0.5
v 5.96244032e-09 -0.5 0.5
v 0.249999955 -0.433012724 0.5
v 0.433012784 -0.249999881 0.5
v 0.5 0 0.25
v -0.5 -4.37113883e-08 0.25
v -0.433012635 -0.250000089 0.25
v -0.249999955 -0.433012724 0.25
v 5.96244032e-09 -0.5 0.25
v 0.249999955 -0.433012724 0.25
v 0.433012784 -0.249999881 0.25
v 0.5 0 0
v -0.5 -4.37113883e-08 0
v -0.433012635 -0.250000089 0
v -0.249999955 -0.433012724 0
v 5.96244032e-09 -0.5 0
v 0.249999955 -0.433012724 0
v 0.433012784 -0.249999881 0
v 0.5 0 -0.25
v -0.5 -4.37113883e-08 -0.25
v -0.433012635 -0.250000089 -0.25
v -0.249999955 -0.433012724 -0.25
v 5.96244032e-09 -0.5 -0.25
v 0.249999955 -0.433012724 -0.25
v 0.433012784 -0.249999881 -0.25
v 0.5 0 -0.5
v -0.5 -4.37113883e-08 -0.5
v -0.433012635 -0.250000089 -0.5
v -0.249999955 -0.433012724 -0.5
v 5.96244032e-09 -0.5 -0.5
v 0.249999955 -0.433012724 -0.5
v 0.433012784 -0.249999881 -0.5
vt 1.55123603 0.00303583802 0
vt 1.29320264 0.252276897 0
vt 1.29320264 0.00303579471 0
vt 1.55123603 0.252276927 0
vt 1.03516936 0.00303581567 0
vt 1.03516936 0.252276897 0
vt 0.777135849 0.252276868 0
vt 0.777135909 0.00303580402 0
vt 0.519102633 0.00303579285 0
vt 0.519102633 0.252276868 0
vt 0.261069059 0.252276868 0
vt 0.261069059 0.00303574908 0
vt 0.00303576002 0.00303580216 0
vt 0.00303574908 0.252276868 0
vt 1.55123603 0.501518011 0
vt 1.29320252 0.501518011 0
vt 1.03516924 0.501518011 0
vt 0.777135849 0.501518011 0
vt 0.519102573 0.501518011 0
vt 0.26106903 0.501517951 0
vt 0.00303580263 0.501517951 0
vt 1.29320252 0.750759125 0
vt 1.55123591 0.750759125 0
vt 1.03516924 0.750759125 0
vt 0.777135849 0.750759125 0
vt 0.519102573 0.750759065 0
vt 0.261069059 0.750759065 0
vt 0.00303579168 0.750759065 0
vt 1.55123591 1.00000024 0
vt 1.29320252 1.00000024 0
vt 1.03516924 1.00000024 0
vt 0.777135909 1.00000024 0
vt 0.519102573 1.00000024 0
vt 0.26106903 1.00000024 0
vt 0.00303578051 1.00000024 0
vn 0.965925872 -0.258818865 0
vn -0.965925813 -0.258819252 0
vn -0.866025269 -0.500000119 0
vn -0.49999994 -0.866025388 0
vn 0 -1 0
vn 0.5 -0.866025448 0
vn 0.866025448 -0.499999881 0
vn 0.965925932 -0.258818895 0
vn -0.965925813 -0.258819252 0
vn -0.866025269 -0.500000119 0
vn -0.499999911 -0.866025448 0
vn 0 -0.99999994 0
vn 0.5 -0.866025388 0
vn 0.866025448 -0.499999911 0
vn 0.965925872 -0.258818865 0
vn -0.965925813 -0.258819222 0
vn -0.866025269 -0.500000119 0
vn -0.5 -0.866025388 0
vn 0 -1 0
vn 0.5 -0.866025448 0
vn 0.866025448 -0.499999881 0
vn 0.965925932 -0.258818895 0
vn -0.965925813 -0.258819252 0
vn -0.866025269 -0.500000119 0
vn -0.499999911 -0.866025448 0
vn 0 -0.99999994 0
vn 0.5 -0.866025388 0
vn 0.866025448 -0.499999911 0
vn 0.965925872 -0.258818865 0
vn -0.965925813 -0.258819252 0
vn -0.866025269 -0.500000119 0
vn -0.49999994 -0.866025388 0
vn 0 -1 0
vn 0.5 -0.866025388 0
vn 0.866025448 -0.499999881 0
g 
f 2/1/2 10/2/10 3/3/3
f 2/1/2 9/4/9 10/2/10
f 3/3/3 10/2/10 4/5/4
f 4/5/4 10/2/10 11/6/11
f 4/5/4 12/7/12 5/8/5
f 4/5/4 11/6/11 12/7/12
f 5/8/5 12/7/12 6/9/6
f 6/9/6 12/7/12 13/10/13
f 6/9/6 14/11/14 7/12/7
f 6/9/6 13/10/13 14/11/14
f 7/12/7 14/11/14 1/13/1
f 1/13/1 14/11/14 8/14/8
f 9/4/9 16/15/16 10/2/10
f 10/2/10 16/15/16 17/16/17
f 10/2/10 18/17/18 11/6/11
f 10/2/10 17/16/17 18/17/18
f 11/6/11 18/17/18 12/7/12
f 12/7/12 18/17/18 19/18/19
f 12/7/12 20/19/20 13/10/13
f 12/7/12 19/18/19 20/19/20
f 13/10/13 20/19/20 14/11/14
f 14/11/14 20/19/20 21/20/21
f 14/11/14 15/21/15 8/14/8
f 14/11/14 21/20/21 15/21/15
f 16/15/16 24/22/24 17/16/17
f 16/15/16 23/23/23 24/22/24
f 17/16/17 24/22/24 18/17/18
f 18/17/18 24/22/24 25/24/25
f 18/17/18 26/25/26 19/18/19
f 18/17/18 25/24/25 26/25/26
f 19/18/19 26/25/26 20/19/20
f 20/19/20 26/25/26 27/26/27
f 20/19/20 28/27/28 21/20/21
f 20/19/20 27/26/27 28/27/28
f 21/20/21 28/27/28 15/21/15
f 15/21/15 28/27/28 22/28/22
f 23/23/23 30/29/30 24/22/24
f 24/22/24 30/29/30 31/30/31
f 24/22/24 32/31/32 25/24/25
f 24/22/24 31/30/31 32/31/32
f 25/24/25 32/31/32 26/25/26
f 26/25/26 32/31/32 33/32/33
f 26/25/26 34/33/34 27/26/27
f 26/25/26 33/32/33 34/33/34
f 27/26/27 34/33/34 28/27/28
f 28/27/28 34/33/34 35/34/35
f 28/27/28 29/35/29 22/28/22
f 28/27/28 35/34/35 29/35/29
